<?xml version="1.0" standalone="no"?>
<!DOCTYPE svg PUBLIC "-//W3C//DTD SVG 20010904//EN"
 "http://www.w3.org/TR/2001/REC-SVG-20010904/DTD/svg10.dtd">
<svg version="1.0" xmlns="http://www.w3.org/2000/svg"
 width="832.000000pt" height="832.000000pt" viewBox="0 0 832.000000 832.000000"
 preserveAspectRatio="xMidYMid meet">
<metadata>
Created by potrace 1.14, written by Peter Selinger 2001-2017
</metadata>
<g transform="translate(0.000000,832.000000) scale(0.100000,-0.100000)"
fill="#000000" stroke="none">
<path d="M2578 8315 c-2 -3 -22 -7 -44 -11 -48 -8 -49 -8 -104 -23 -68 -18
-88 -26 -275 -111 -151 -69 -337 -236 -441 -396 -55 -86 -98 -164 -89 -164 3
0 -1 -13 -9 -28 -8 -15 -22 -57 -31 -92 -16 -61 -19 -74 -29 -118 -2 -9 -9
-35 -15 -58 -13 -50 -12 -394 2 -411 5 -7 7 -13 4 -13 -3 0 5 -38 18 -86 25
-90 129 -314 173 -373 66 -88 154 -178 205 -209 15 -9 27 -20 27 -24 0 -4 6
-8 13 -8 6 0 39 -14 71 -30 59 -30 168 -68 216 -75 14 -2 49 -10 77 -18 39
-10 109 -13 265 -11 117 1 224 4 238 7 14 3 43 8 65 12 81 12 225 74 267 114
9 9 31 27 49 41 81 62 183 196 231 305 32 72 67 166 72 192 2 10 9 38 16 63
21 77 21 83 24 175 2 52 -3 115 -11 150 -8 33 -15 66 -17 75 -1 8 -9 31 -18
50 -8 19 -21 53 -28 75 -47 143 -244 328 -464 435 -129 62 -146 66 -386 75
-75 3 -179 -23 -212 -53 -10 -8 -18 -12 -18 -9 0 8 -134 -76 -172 -109 -91
-76 -204 -253 -227 -356 -41 -182 -28 -305 52 -478 24 -52 37 -71 91 -130 82
-89 249 -160 390 -164 142 -4 219 17 321 85 46 31 105 86 105 97 0 5 9 18 19
29 69 73 77 257 17 367 -24 44 -69 112 -85 126 -39 38 -115 90 -130 90 -9 0
-35 -17 -57 -37 -54 -51 -144 -161 -144 -176 0 -7 14 -32 31 -57 25 -36 30
-52 26 -83 -7 -52 -39 -76 -102 -76 -66 -1 -124 27 -164 77 -58 74 -60 126 -6
233 29 56 124 174 167 205 81 61 204 68 310 20 202 -93 336 -262 333 -421 -3
-175 -65 -317 -188 -433 -68 -64 -110 -88 -176 -98 -20 -3 -38 -7 -41 -9 -3
-2 -26 -6 -50 -10 -25 -3 -58 -9 -75 -14 -62 -15 -226 2 -315 34 -126 44 -165
60 -178 73 -7 6 -17 12 -21 12 -9 0 -117 104 -142 136 -41 53 -83 142 -95 204
-22 105 -21 278 2 380 3 14 7 35 10 47 2 12 8 33 13 45 5 13 10 28 11 33 14
55 72 185 83 185 4 0 7 7 7 16 0 26 100 117 193 174 96 60 161 96 186 103 30
7 36 9 59 18 52 20 132 29 252 28 269 0 356 -24 546 -150 96 -64 238 -209 277
-284 70 -135 118 -252 131 -319 2 -12 9 -32 14 -46 5 -14 10 -29 10 -35 1 -5
6 -30 11 -55 6 -25 12 -58 15 -75 2 -16 10 -52 16 -80 7 -27 13 -57 14 -65 1
-9 6 -22 11 -29 4 -8 9 -197 11 -420 1 -223 4 -653 6 -956 l3 -550 -190 -1
c-104 0 -195 3 -201 8 -10 7 -11 96 -3 320 2 52 -1 92 -7 98 -14 14 -363 15
-377 1 -13 -13 -12 0 -32 -546 -19 -514 -24 -819 -14 -829 2 -2 84 -7 182 -9
127 -3 182 -1 194 8 19 14 21 44 27 333 2 112 6 206 10 209 5 6 102 7 319 3
59 -1 87 -5 88 -13 1 -9 8 -366 9 -462 1 -67 1 -252 1 -265 -1 -8 -1 -37 0
-65 5 -320 3 -814 -4 -828 -7 -15 -15 -18 -45 -12 -20 4 -46 12 -57 18 -11 6
-22 12 -25 12 -3 0 -27 12 -55 25 -27 13 -52 24 -55 25 -9 3 -63 26 -95 39
-16 8 -52 21 -80 31 -27 9 -57 19 -65 22 -19 8 -18 7 -60 17 -19 5 -41 12 -50
17 -13 7 -109 32 -215 57 -16 3 -91 6 -165 6 -111 1 -147 -3 -205 -21 -124
-39 -242 -120 -324 -223 -12 -14 -25 -30 -31 -37 -5 -7 -10 -15 -10 -17 0 -3
-16 -30 -35 -61 -20 -30 -32 -55 -28 -55 4 0 3 -4 -3 -8 -12 -7 -67 -152 -59
-152 2 0 1 -10 -4 -23 -5 -13 -12 -39 -15 -58 -3 -19 -9 -54 -14 -79 -10 -56
-8 -243 3 -290 5 -19 9 -42 10 -50 2 -30 47 -135 74 -172 52 -70 365 -393 537
-554 35 -33 172 -156 223 -200 19 -16 43 -38 55 -50 12 -11 55 -49 96 -85 41
-35 77 -66 80 -69 3 -3 27 -24 54 -45 28 -22 61 -51 75 -64 39 -36 162 -134
201 -161 19 -13 37 -27 40 -30 3 -3 46 -37 96 -76 101 -80 91 -71 229 -184
143 -117 198 -165 284 -247 99 -95 110 -95 182 -6 61 77 172 190 304 310 93
85 100 91 180 158 26 22 55 47 64 56 9 8 43 37 76 65 33 27 62 51 65 54 3 3
46 39 95 80 50 41 115 98 145 126 30 29 76 72 101 96 25 23 99 93 164 153 65
61 128 119 139 130 12 11 57 51 101 90 197 171 427 421 475 515 32 62 58 139
72 210 20 97 14 247 -11 312 -6 16 -8 28 -6 28 5 0 -26 83 -56 150 -55 119
-211 276 -362 364 -63 37 -189 84 -278 105 -95 22 -269 21 -369 -3 -36 -9 -76
-18 -90 -21 -14 -3 -34 -9 -45 -12 -11 -4 -22 -8 -25 -8 -25 -7 -254 -119
-405 -199 -39 -21 -65 -20 -66 2 -1 9 -3 81 -4 159 -2 79 -5 149 -8 158 -4 8
-2 17 4 20 5 4 6 11 3 17 -11 18 -17 1240 -5 1247 5 4 90 5 188 4 142 -2 180
-5 188 -17 10 -13 12 -182 5 -454 -4 -129 -10 -125 190 -126 89 -1 167 2 173
6 14 9 15 39 22 768 3 305 7 581 9 613 1 32 -2 61 -7 64 -18 11 -340 8 -355
-3 -12 -9 -15 -48 -16 -220 -1 -115 -5 -215 -10 -222 -5 -9 -54 -11 -198 -7
-106 3 -194 7 -196 10 -7 6 -5 1467 2 1515 3 25 9 126 12 225 3 99 7 200 9
225 6 82 16 165 22 190 10 40 34 154 35 167 1 5 8 24 16 42 7 19 16 44 18 54
7 38 62 143 103 197 84 112 221 239 324 301 98 58 206 102 281 113 21 4 41 8
45 10 3 2 22 7 41 10 19 3 49 9 65 13 17 4 68 7 115 7 344 -1 612 -211 721
-564 24 -78 33 -240 18 -325 -4 -22 -9 -56 -12 -75 -16 -124 -101 -243 -241
-339 -51 -36 -181 -99 -216 -105 -14 -2 -25 -5 -25 -6 0 -2 -13 -5 -102 -24
-102 -23 -278 -16 -353 13 -79 30 -180 111 -238 189 -75 100 -87 138 -86 262
0 58 3 119 6 135 30 152 149 294 298 355 37 16 181 19 233 6 63 -15 161 -71
208 -117 78 -77 111 -174 86 -255 -11 -35 -67 -101 -109 -128 -35 -23 -118
-23 -157 0 -49 29 -58 64 -33 130 l22 55 -29 29 c-15 17 -31 30 -35 30 -3 0
-45 22 -92 49 -73 42 -90 48 -115 41 -41 -12 -53 -27 -108 -135 -22 -43 -26
-63 -25 -135 0 -47 3 -98 6 -115 8 -44 39 -115 49 -115 5 0 9 -6 9 -14 0 -18
82 -101 132 -132 121 -76 295 -80 466 -10 80 32 188 104 237 157 122 133 166
350 109 536 -30 95 -119 252 -173 301 -46 42 -153 107 -210 127 -24 8 -49 19
-55 24 -6 5 -14 9 -19 9 -4 0 -43 5 -87 12 -72 11 -271 9 -325 -3 -11 -3 -33
-8 -50 -12 -16 -4 -77 -30 -135 -58 -94 -45 -116 -62 -203 -149 -53 -53 -97
-104 -97 -113 0 -8 -4 -15 -8 -15 -23 0 -112 -235 -132 -345 -25 -147 -8 -353
36 -422 8 -13 12 -23 9 -23 -3 0 11 -30 31 -67 78 -149 241 -328 354 -390 39
-21 132 -53 230 -79 81 -21 296 -24 394 -5 38 8 76 15 85 16 9 1 27 6 41 12
14 6 43 13 65 17 65 12 271 124 305 167 3 3 12 10 21 15 9 5 41 29 70 54 140
118 260 269 292 366 44 137 48 170 46 382 -2 281 -27 424 -97 557 -28 52 -101
158 -114 163 -5 2 -8 8 -8 13 0 16 -108 129 -190 199 -14 12 -38 33 -54 47
-98 87 -316 173 -481 190 -85 9 -277 9 -360 -1 -104 -11 -262 -45 -330 -71
-81 -30 -159 -67 -163 -77 -2 -4 -8 -8 -12 -8 -24 0 -162 -96 -220 -152 -110
-106 -260 -300 -260 -335 0 -7 -4 -13 -8 -13 -4 0 -13 -12 -20 -27 -7 -16 -24
-50 -37 -76 -24 -45 -101 -246 -110 -285 -2 -9 -16 -62 -29 -117 -67 -265 -64
-211 -62 -1280 2 -533 1 -976 -2 -982 -5 -16 -58 -17 -68 -1 -4 7 -9 258 -10
558 -4 1058 -12 1484 -29 1556 -8 36 -18 86 -20 110 -3 25 -17 84 -32 132 -14
48 -29 101 -33 117 -35 142 -100 275 -188 385 -71 90 -176 199 -231 240 -18
14 -39 31 -46 38 -8 6 -18 12 -24 12 -6 0 -11 5 -11 10 0 6 -5 10 -10 10 -6 0
-21 11 -34 25 -13 14 -26 25 -29 25 -3 0 -29 16 -58 35 -100 65 -288 139 -409
160 -19 3 -55 11 -80 17 -43 10 -334 21 -342 13z m1667 -3857 c2 -7 7 -445 10
-973 9 -1448 6 -1334 34 -1356 23 -19 25 -19 50 -2 14 9 40 30 56 45 66 64
355 270 460 328 82 46 200 103 212 103 7 0 13 3 13 7 0 4 15 11 33 17 17 6 55
20 83 31 28 10 66 22 85 26 19 3 45 9 59 11 147 32 209 35 285 14 108 -30 240
-116 266 -173 6 -12 19 -37 29 -56 32 -60 49 -169 36 -235 -4 -16 -9 -43 -12
-60 -10 -48 -29 -78 -110 -172 -127 -146 -687 -694 -890 -870 -12 -10 -52 -46
-90 -79 -38 -34 -125 -108 -194 -165 -69 -56 -127 -105 -130 -108 -27 -32
-255 -211 -268 -211 -25 0 -275 184 -607 444 -134 105 -150 118 -178 141 -7 6
-33 27 -59 48 -26 21 -53 43 -60 50 -7 7 -92 79 -188 161 -96 82 -183 157
-192 168 -10 11 -18 18 -18 15 0 -2 -19 14 -43 37 -24 22 -70 64 -102 91 -31
28 -104 95 -161 150 -138 134 -151 165 -154 355 -3 173 13 233 82 309 83 91
160 130 292 148 159 22 341 -29 661 -187 181 -89 381 -211 594 -366 31 -22 37
-23 55 -10 19 13 21 22 18 117 -1 57 -4 576 -7 1154 -4 825 -2 1051 8 1057 18
12 37 10 42 -4z"/>
</g>
</svg>
